<svg width="117" height="41" viewBox="0 0 117 41" fill="none" xmlns="http://www.w3.org/2000/svg">
<circle cx="10" cy="24" r="4" fill="#FFD50C"/>
<circle cx="10" cy="24" r="4" fill="#FFD50C"/>
<circle cx="10" cy="24" r="4" fill="#FFD50C"/>
<circle cx="10" cy="24" r="4" fill="#FFD50C"/>
<circle cx="110" cy="24" r="4" fill="#FFD50C"/>
<circle cx="110" cy="24" r="4" fill="#FFD50C"/>
<circle cx="110" cy="24" r="4" fill="#FFD50C"/>
<circle cx="110" cy="24" r="4" fill="#FFD50C"/>
<path d="M0.888 24.328C0.888 28.408 3.648 31.216 7.128 31.216C9.288 31.216 10.872 30.208 11.712 29.008V31H14.472V13.24H11.712V19.624C10.704 18.376 8.88 17.56 7.152 17.56C3.648 17.56 0.888 20.248 0.888 24.328ZM11.712 24.376C11.712 27.232 9.768 28.84 7.704 28.84C5.664 28.84 3.696 27.184 3.696 24.328C3.696 21.472 5.664 19.936 7.704 19.936C9.768 19.936 11.712 21.544 11.712 24.376ZM23.6336 19.864C25.6736 19.864 27.2816 21.16 27.3296 23.2H20.0096C20.2976 21.112 21.7856 19.864 23.6336 19.864ZM29.8256 27.064H26.8736C26.3696 28.096 25.4336 28.912 23.7536 28.912C21.7376 28.912 20.1776 27.592 19.9856 25.408H30.0896C30.1616 24.952 30.1856 24.52 30.1856 24.064C30.1856 20.176 27.5216 17.56 23.7536 17.56C19.8416 17.56 17.1536 20.224 17.1536 24.376C17.1536 28.528 19.9616 31.216 23.7536 31.216C26.9936 31.216 29.0816 29.368 29.8256 27.064ZM32.8781 31H35.6141V17.776H32.8781V31ZM34.2701 16.024C35.2301 16.024 35.9981 15.256 35.9981 14.272C35.9981 13.288 35.2301 12.52 34.2701 12.52C33.2861 12.52 32.5181 13.288 32.5181 14.272C32.5181 15.256 33.2861 16.024 34.2701 16.024ZM48.5903 31H51.3023V23.2C51.3023 19.504 48.9743 17.56 45.8783 17.56C44.2943 17.56 42.8303 18.208 41.9423 19.288V17.776H39.2063V31H41.9423V23.608C41.9423 21.184 43.2623 19.936 45.2783 19.936C47.2703 19.936 48.5903 21.184 48.5903 23.608V31ZM64.1762 31H66.8882V23.2C66.8882 19.504 64.5602 17.56 61.4642 17.56C59.8802 17.56 58.4162 18.208 57.5282 19.288V17.776H54.7922V31H57.5282V23.608C57.5282 21.184 58.8482 19.936 60.8642 19.936C62.8562 19.936 64.1762 21.184 64.1762 23.608V31ZM82.3541 17.776H79.6181V25.144C79.6181 27.568 78.2981 28.816 76.2821 28.816C74.2901 28.816 72.9701 27.568 72.9701 25.144V17.776H70.2581V25.552C70.2581 29.248 72.6101 31.192 75.7061 31.192C77.2661 31.192 78.7541 30.544 79.6181 29.416V31H82.3541V17.776ZM95.3481 31H98.0601V23.2C98.0601 19.504 95.7321 17.56 92.6361 17.56C91.0521 17.56 89.5881 18.208 88.7001 19.288V17.776H85.9641V31H88.7001V23.608C88.7001 21.184 90.0201 19.936 92.0361 19.936C94.0281 19.936 95.3481 21.184 95.3481 23.608V31ZM100.638 24.328C100.638 28.408 103.398 31.216 106.83 31.216C109.038 31.216 110.622 30.16 111.462 29.032V31H114.222V17.776H111.462V19.696C110.646 18.616 109.11 17.56 106.878 17.56C103.398 17.56 100.638 20.248 100.638 24.328ZM111.462 24.376C111.462 27.232 109.518 28.84 107.454 28.84C105.414 28.84 103.446 27.184 103.446 24.328C103.446 21.472 105.414 19.936 107.454 19.936C109.518 19.936 111.462 21.544 111.462 24.376Z" fill="#BB9DE3"/>
<path d="M38.4999 1.57178C38.1635 1.37755 37.7887 1.40355 37.4682 1.50882C37.1474 1.61423 36.8236 1.81521 36.5153 2.06727C35.8959 2.57378 35.2531 3.35757 34.7131 4.29293C34.1731 5.22828 33.8157 6.17686 33.6867 6.96654C33.6226 7.3595 33.6104 7.7404 33.6796 8.071C33.7486 8.40119 33.9135 8.73876 34.2499 8.933C34.5864 9.12723 34.9611 9.10123 35.2816 8.99595C35.6025 8.89055 35.9263 8.68956 36.2345 8.43751C36.8539 7.93099 37.4967 7.1472 38.0368 6.21185C38.5768 5.27649 38.9342 4.32791 39.0631 3.53824C39.1273 3.14528 39.1395 2.76438 39.0703 2.43378C39.0012 2.10359 38.8364 1.76601 38.4999 1.57178Z" fill="white" stroke="#BB9DE3"/>
<path d="M41.4282 4.5C41.234 4.16358 40.8964 3.9987 40.5662 3.92963C40.2356 3.86047 39.8547 3.87264 39.4618 3.93681C38.6721 4.06576 37.7235 4.42314 36.7881 4.96317C35.8528 5.50319 35.069 6.146 34.5625 6.7654C34.3104 7.07363 34.1095 7.39742 34.004 7.7183C33.8988 8.03879 33.8728 8.41358 34.067 8.75C34.2612 9.08642 34.5988 9.2513 34.929 9.32037C35.2596 9.38953 35.6405 9.37737 36.0335 9.3132C36.8231 9.18424 37.7717 8.82686 38.7071 8.28683C39.6424 7.74681 40.4262 7.10401 40.9327 6.4846C41.1848 6.17637 41.3858 5.85259 41.4912 5.5317C41.5964 5.21121 41.6225 4.83643 41.4282 4.5Z" fill="white" stroke="#BB9DE3"/>
<path d="M42.5 8.50003C42.5 8.11156 42.2901 7.79998 42.0387 7.57507C41.7869 7.34988 41.451 7.16996 41.0786 7.02906C40.3302 6.74589 39.3301 6.58111 38.25 6.58111C37.1699 6.58111 36.1698 6.74589 35.4214 7.02906C35.049 7.16996 34.7131 7.34988 34.4613 7.57507C34.2099 7.79998 34 8.11156 34 8.50003C34 8.88849 34.2099 9.20007 34.4613 9.42498C34.7131 9.65017 35.049 9.83009 35.4214 9.971C36.1698 10.2542 37.1699 10.4189 38.25 10.4189C39.3301 10.4189 40.3302 10.2542 41.0786 9.971C41.451 9.83009 41.7869 9.65017 42.0387 9.42498C42.2901 9.20007 42.5 8.88849 42.5 8.50003Z" fill="white" stroke="#BB9DE3"/>
<path d="M41.4282 12.5C41.6224 12.1636 41.5964 11.7888 41.4911 11.4683C41.3857 11.1474 41.1848 10.8236 40.9327 10.5154C40.4262 9.896 39.6424 9.25319 38.707 8.71317C37.7717 8.17314 36.8231 7.81576 36.0334 7.6868C35.6405 7.62264 35.2596 7.61047 34.929 7.67963C34.5988 7.7487 34.2612 7.91358 34.067 8.25C33.8727 8.58642 33.8987 8.96121 34.004 9.2817C34.1094 9.60259 34.3104 9.92637 34.5625 10.2346C35.069 10.854 35.8528 11.4968 36.7881 12.0368C37.7235 12.5769 38.6721 12.9342 39.4617 13.0632C39.8547 13.1274 40.2356 13.1395 40.5662 13.0704C40.8964 13.0013 41.234 12.8364 41.4282 12.5Z" fill="white" stroke="#BB9DE3"/>
<path d="M38.5001 15.4282C38.8365 15.234 39.0014 14.8964 39.0704 14.5662C39.1396 14.2356 39.1274 13.8547 39.0633 13.4617C38.9343 12.6721 38.5769 11.7235 38.0369 10.7881C37.4969 9.85277 36.8541 9.06897 36.2347 8.56246C35.9264 8.31041 35.6026 8.10942 35.2818 8.00401C34.9613 7.89874 34.5865 7.87274 34.2501 8.06697C33.9136 8.2612 33.7488 8.59878 33.6797 8.92897C33.6105 9.25957 33.6227 9.64047 33.6869 10.0334C33.8158 10.8231 34.1732 11.7717 34.7132 12.707C35.2533 13.6424 35.8961 14.4262 36.5155 14.9327C36.8237 15.1848 37.1475 15.3857 37.4684 15.4911C37.7889 15.5964 38.1636 15.6224 38.5001 15.4282Z" fill="white" stroke="#BB9DE3"/>
<path d="M34.5 16.5C34.8884 16.5 35.2 16.2901 35.4249 16.0387C35.6501 15.7869 35.83 15.451 35.9709 15.0786C36.2541 14.3302 36.4189 13.3301 36.4189 12.25C36.4189 11.1699 36.2541 10.1698 35.9709 9.4214C35.83 9.04901 35.6501 8.71306 35.4249 8.46133C35.2 8.20991 34.8884 8 34.5 8C34.1115 8 33.7999 8.20991 33.575 8.46133C33.3498 8.71306 33.1699 9.04901 33.029 9.4214C32.7458 10.1698 32.5811 11.1699 32.5811 12.25C32.5811 13.3301 32.7458 14.3302 33.029 15.0786C33.1699 15.451 33.3498 15.7869 33.575 16.0387C33.7999 16.2901 34.1115 16.5 34.5 16.5Z" fill="white" stroke="#BB9DE3"/>
<path d="M34.7499 8.06699C34.4135 7.87275 34.0387 7.89876 33.7182 8.00403C33.3974 8.10944 33.0736 8.31042 32.7653 8.56247C32.1459 9.06899 31.5031 9.85278 30.9631 10.7881C30.4231 11.7235 30.0657 12.6721 29.9367 13.4617C29.8726 13.8547 29.8604 14.2356 29.9296 14.5662C29.9986 14.8964 30.1635 15.234 30.4999 15.4282C30.8364 15.6224 31.2111 15.5964 31.5316 15.4912C31.8525 15.3858 32.1763 15.1848 32.4845 14.9327C33.1039 14.4262 33.7467 13.6424 34.2868 12.7071C34.8268 11.7717 35.1842 10.8231 35.3131 10.0334C35.3773 9.64049 35.3895 9.25959 35.3203 8.92899C35.2512 8.5988 35.0864 8.26122 34.7499 8.06699Z" fill="white" stroke="#BB9DE3"/>
<path d="M34.933 8.25C34.7387 7.91358 34.4012 7.7487 34.071 7.67963C33.7404 7.61047 33.3595 7.62264 32.9665 7.68681C32.1768 7.81576 31.2283 8.17314 30.2929 8.71317C29.3576 9.25319 28.5738 9.896 28.0672 10.5154C27.8152 10.8236 27.6142 11.1474 27.5088 11.4683C27.4035 11.7888 27.3775 12.1636 27.5718 12.5C27.766 12.8364 28.1036 13.0013 28.4338 13.0704C28.7644 13.1395 29.1453 13.1274 29.5382 13.0632C30.3279 12.9342 31.2765 12.5769 32.2118 12.0368C33.1472 11.4968 33.931 10.854 34.4375 10.2346C34.6895 9.92637 34.8905 9.60259 34.9959 9.2817C35.1012 8.96121 35.1272 8.58643 34.933 8.25Z" fill="white" stroke="#BB9DE3"/>
<path d="M35 8.50003C35 8.11156 34.7901 7.79998 34.5387 7.57507C34.2869 7.34988 33.951 7.16996 33.5786 7.02906C32.8302 6.74589 31.8301 6.58111 30.75 6.58111C29.6699 6.58111 28.6698 6.74589 27.9214 7.02906C27.549 7.16996 27.2131 7.34988 26.9613 7.57507C26.7099 7.79998 26.5 8.11156 26.5 8.50003C26.5 8.88849 26.7099 9.20007 26.9613 9.42498C27.2131 9.65017 27.549 9.83009 27.9214 9.971C28.6698 10.2542 29.6699 10.4189 30.75 10.4189C31.8301 10.4189 32.8302 10.2542 33.5786 9.971C33.951 9.83009 34.2869 9.65017 34.5387 9.42498C34.7901 9.20007 35 8.88849 35 8.50003Z" fill="white" stroke="#BB9DE3"/>
<path d="M34.9331 8.75C35.1273 8.41358 35.1013 8.03879 34.996 7.7183C34.8906 7.39741 34.6896 7.07363 34.4376 6.7654C33.9311 6.146 33.1473 5.50319 32.2119 4.96317C31.2766 4.42314 30.328 4.06576 29.5383 3.9368C29.1454 3.87264 28.7645 3.86047 28.4339 3.92963C28.1037 3.9987 27.7661 4.16358 27.5719 4.5C27.3776 4.83642 27.4036 5.21121 27.5089 5.5317C27.6143 5.85259 27.8153 6.17637 28.0673 6.4846C28.5739 7.104 29.3577 7.74681 30.293 8.28683C31.2284 8.82686 32.1769 9.18424 32.9666 9.3132C33.3596 9.37737 33.7405 9.38953 34.0711 9.32037C34.4013 9.2513 34.7388 9.08642 34.9331 8.75Z" fill="white" stroke="#BB9DE3"/>
<path d="M34.7501 8.93304C35.0865 8.7388 35.2514 8.40123 35.3204 8.07104C35.3896 7.74044 35.3774 7.35954 35.3133 6.96658C35.1843 6.1769 34.8269 5.22832 34.2869 4.29297C33.7469 3.35762 33.1041 2.57382 32.4847 2.06731C32.1764 1.81526 31.8526 1.61427 31.5318 1.50887C31.2113 1.40359 30.8365 1.37759 30.5001 1.57182C30.1636 1.76606 29.9988 2.10363 29.9297 2.43382C29.8605 2.76442 29.8727 3.14532 29.9369 3.53828C30.0658 4.32796 30.4232 5.27654 30.9632 6.21189C31.5033 7.14724 32.1461 7.93104 32.7655 8.43755C33.0737 8.6896 33.3975 8.89059 33.7184 8.99599C34.0389 9.10127 34.4136 9.12727 34.7501 8.93304Z" fill="white" stroke="#BB9DE3"/>
<path d="M34.5 9C34.8884 9 35.2 8.79009 35.4249 8.53867C35.6501 8.28694 35.83 7.95099 35.9709 7.5786C36.2541 6.83024 36.4189 5.83005 36.4189 4.75C36.4189 3.66995 36.2541 2.66976 35.9709 1.9214C35.83 1.54901 35.6501 1.21306 35.4249 0.961327C35.2 0.709911 34.8884 0.5 34.5 0.5C34.1115 0.5 33.7999 0.709911 33.575 0.961327C33.3498 1.21306 33.1699 1.54901 33.029 1.9214C32.7458 2.66976 32.5811 3.66995 32.5811 4.75C32.5811 5.83005 32.7458 6.83024 33.029 7.5786C33.1699 7.95099 33.3498 8.28694 33.575 8.53867C33.7999 8.79009 34.1115 9 34.5 9Z" fill="white" stroke="#BB9DE3"/>
<path d="M36.2703 5.43378C36.0347 5.29779 35.7872 5.32525 35.6106 5.38328C35.4335 5.44144 35.2701 5.54648 35.1289 5.66198C34.8434 5.89539 34.5611 6.24365 34.329 6.64577C34.0968 7.04789 33.9363 7.4665 33.8769 7.8304C33.8475 8.01047 33.8383 8.20452 33.8764 8.38694C33.9145 8.56895 34.0145 8.797 34.25 8.93299C34.4855 9.06898 34.733 9.04153 34.9097 8.9835C35.0867 8.92534 35.2502 8.8203 35.3914 8.7048C35.6768 8.47139 35.9592 8.12313 36.1913 7.72101C36.4235 7.31888 36.5839 6.90027 36.6434 6.53637C36.6728 6.35631 36.682 6.16225 36.6439 5.97983C36.6058 5.79783 36.5058 5.56977 36.2703 5.43378Z" fill="#DDB90F" stroke="#BB9DE3"/>
<path d="M37.5662 6.72973C37.4302 6.49419 37.2021 6.39422 37.0201 6.35615C36.8377 6.31799 36.6437 6.32724 36.4636 6.35664C36.0997 6.41607 35.6811 6.57652 35.279 6.80868C34.8768 7.04085 34.5286 7.32315 34.2952 7.60858C34.1797 7.74982 34.0746 7.91326 34.0165 8.09031C33.9584 8.26697 33.931 8.51446 34.067 8.75C34.203 8.98554 34.431 9.08551 34.613 9.12358C34.7954 9.16174 34.9895 9.15249 35.1696 9.12308C35.5335 9.06366 35.9521 8.90321 36.3542 8.67105C36.7563 8.43888 37.1046 8.15658 37.338 7.87114C37.4535 7.7299 37.5585 7.56647 37.6167 7.38941C37.6747 7.21275 37.7022 6.96527 37.5662 6.72973Z" fill="#DDB90F" stroke="#BB9DE3"/>
<path d="M38.0405 8.49999C38.0405 8.22801 37.893 8.02741 37.7544 7.90343C37.6155 7.77918 37.4429 7.69016 37.2722 7.62559C36.9274 7.49511 36.4846 7.42475 36.0203 7.42475C35.5559 7.42475 35.1132 7.49511 34.7683 7.62559C34.5977 7.69016 34.425 7.77918 34.2861 7.90343C34.1475 8.02741 34 8.22801 34 8.49999C34 8.77197 34.1475 8.97257 34.2861 9.09655C34.425 9.2208 34.5977 9.30982 34.7683 9.37439C35.1132 9.50487 35.5559 9.57523 36.0203 9.57523C36.4846 9.57523 36.9274 9.50487 37.2722 9.37439C37.4429 9.30982 37.6155 9.2208 37.7544 9.09654C37.893 8.97257 38.0405 8.77197 38.0405 8.49999Z" fill="#DDB90F" stroke="#BB9DE3"/>
<path d="M37.5662 10.2703C37.7022 10.0347 37.6748 9.78724 37.6167 9.61058C37.5586 9.43353 37.4535 9.27009 37.338 9.12885C37.1046 8.84342 36.7564 8.56112 36.3542 8.32895C35.9521 8.09679 35.5335 7.93634 35.1696 7.87691C34.9895 7.84751 34.7955 7.83826 34.6131 7.87642C34.4311 7.91449 34.203 8.01446 34.067 8.25C33.931 8.48554 33.9585 8.73302 34.0165 8.90968C34.0747 9.08674 34.1797 9.25017 34.2952 9.39141C34.5286 9.67685 34.8769 9.95915 35.279 10.1913C35.6811 10.4235 36.0997 10.5839 36.4636 10.6434C36.6437 10.6728 36.8377 10.682 37.0202 10.6439C37.2022 10.6058 37.4302 10.5058 37.5662 10.2703Z" fill="#DDB90F" stroke="#BB9DE3"/>
<path d="M36.2701 11.5662C36.5057 11.4302 36.6057 11.2021 36.6437 11.0201C36.6819 10.8377 36.6726 10.6437 36.6432 10.4636C36.5838 10.0997 36.4234 9.68107 36.1912 9.27895C35.959 8.87683 35.6767 8.52857 35.3913 8.29516C35.2501 8.17966 35.0866 8.07462 34.9096 8.01646C34.7329 7.95843 34.4854 7.93098 34.2499 8.06697C34.0143 8.20296 33.9144 8.43101 33.8763 8.61302C33.8381 8.79544 33.8474 8.98949 33.8768 9.16956C33.9362 9.53346 34.0967 9.95207 34.3288 10.3542C34.561 10.7563 34.8433 11.1046 35.1287 11.338C35.27 11.4535 35.4334 11.5585 35.6105 11.6167C35.7871 11.6747 36.0346 11.7022 36.2701 11.5662Z" fill="#DDB90F" stroke="#BB9DE3"/>
<path d="M34.4999 12.0405C34.7719 12.0405 34.9725 11.893 35.0965 11.7544C35.2207 11.6155 35.3097 11.4429 35.3743 11.2722C35.5048 10.9274 35.5752 10.4846 35.5752 10.0203C35.5752 9.55594 35.5048 9.11319 35.3743 8.76833C35.3097 8.59769 35.2207 8.425 35.0965 8.2861C34.9725 8.14752 34.7719 8 34.4999 8C34.2279 8 34.0273 8.14752 33.9034 8.2861C33.7791 8.425 33.6901 8.59769 33.6255 8.76833C33.495 9.11319 33.4247 9.55594 33.4247 10.0203C33.4247 10.4846 33.495 10.9274 33.6255 11.2722C33.6901 11.4429 33.7791 11.6155 33.9034 11.7544C34.0273 11.893 34.2279 12.0405 34.4999 12.0405Z" fill="#DDB90F" stroke="#BB9DE3"/>
<path d="M34.75 8.06699C34.5145 7.931 34.267 7.95845 34.0903 8.01649C33.9133 8.07465 33.7498 8.17969 33.6086 8.29519C33.3232 8.5286 33.0409 8.87686 32.8087 9.27898C32.5765 9.6811 32.4161 10.0997 32.3567 10.4636C32.3272 10.6437 32.318 10.8377 32.3562 11.0201C32.3942 11.2022 32.4942 11.4302 32.7297 11.5662C32.9653 11.7022 33.2128 11.6747 33.3894 11.6167C33.5665 11.5585 33.7299 11.4535 33.8712 11.338C34.1566 11.1046 34.4389 10.7563 34.6711 10.3542C34.9032 9.95209 35.0637 9.53348 35.1231 9.16958C35.1525 8.98952 35.1617 8.79546 35.1236 8.61304C35.0855 8.43103 34.9855 8.20298 34.75 8.06699Z" fill="#DDB90F" stroke="#BB9DE3"/>
<path d="M34.933 8.24999C34.797 8.01445 34.569 7.91449 34.3869 7.87641C34.2045 7.83825 34.0105 7.8475 33.8304 7.87691C33.4665 7.93633 33.0479 8.09678 32.6458 8.32894C32.2437 8.56111 31.8954 8.84341 31.662 9.12885C31.5465 9.27009 31.4414 9.43352 31.3833 9.61058C31.3253 9.78724 31.2978 10.0347 31.4338 10.2703C31.5698 10.5058 31.7978 10.6058 31.9798 10.6438C32.1623 10.682 32.3563 10.6728 32.5364 10.6433C32.9003 10.5839 33.3189 10.4235 33.721 10.1913C34.1231 9.95915 34.4714 9.67684 34.7048 9.39141C34.8203 9.25017 34.9253 9.08674 34.9835 8.90968C35.0415 8.73302 35.069 8.48553 34.933 8.24999Z" fill="#DDB90F" stroke="#BB9DE3"/>
<path d="M35 8.49999C35 8.22801 34.8525 8.02741 34.7139 7.90343C34.575 7.77918 34.4023 7.69016 34.2317 7.62559C33.8868 7.49511 33.4441 7.42475 32.9797 7.42475C32.5154 7.42475 32.0727 7.49511 31.7278 7.62559C31.5572 7.69016 31.3845 7.77918 31.2456 7.90343C31.107 8.02741 30.9595 8.22801 30.9595 8.49999C30.9595 8.77197 31.107 8.97257 31.2456 9.09655C31.3845 9.2208 31.5572 9.30982 31.7278 9.37439C32.0727 9.50487 32.5154 9.57523 32.9797 9.57523C33.4441 9.57523 33.8868 9.50487 34.2317 9.37439C34.4023 9.30982 34.575 9.2208 34.7139 9.09654C34.8525 8.97257 35 8.77197 35 8.49999Z" fill="#DDB90F" stroke="#BB9DE3"/>
<path d="M34.933 8.75001C35.069 8.51446 35.0416 8.26698 34.9835 8.09032C34.9254 7.91326 34.8203 7.74983 34.7048 7.60859C34.4714 7.32316 34.1232 7.04085 33.7211 6.80869C33.3189 6.57652 32.9003 6.41607 32.5364 6.35665C32.3564 6.32725 32.1623 6.31799 31.9799 6.35615C31.7979 6.39423 31.5698 6.49419 31.4338 6.72974C31.2978 6.96528 31.3253 7.21276 31.3833 7.38942C31.4415 7.56648 31.5465 7.72991 31.662 7.87115C31.8954 8.15658 32.2437 8.43889 32.6458 8.67105C33.0479 8.90322 33.4666 9.06367 33.8304 9.12309C34.0105 9.15249 34.2046 9.16175 34.387 9.12359C34.569 9.08551 34.797 8.98555 34.933 8.75001Z" fill="#DDB90F" stroke="#BB9DE3"/>
<path d="M34.75 8.933C34.9855 8.79701 35.0855 8.56895 35.1236 8.38695C35.1617 8.20453 35.1525 8.01047 35.1231 7.83041C35.0637 7.46651 34.9032 7.0479 34.6711 6.64577C34.4389 6.24365 34.1566 5.89539 33.8712 5.66198C33.7299 5.54648 33.5665 5.44144 33.3894 5.38328C33.2128 5.32525 32.9653 5.2978 32.7297 5.43379C32.4942 5.56978 32.3942 5.79783 32.3562 5.97984C32.318 6.16226 32.3272 6.35631 32.3567 6.53638C32.4161 6.90028 32.5765 7.31889 32.8087 7.72101C33.0409 8.12313 33.3232 8.47139 33.6086 8.7048C33.7498 8.8203 33.9133 8.92534 34.0903 8.9835C34.267 9.04153 34.5145 9.06899 34.75 8.933Z" fill="#DDB90F" stroke="#BB9DE3"/>
<path d="M34.4999 8.99998C34.7719 8.99998 34.9725 8.85246 35.0965 8.71388C35.2207 8.57498 35.3097 8.4023 35.3743 8.23165C35.5048 7.8868 35.5752 7.44404 35.5752 6.97971C35.5752 6.51538 35.5048 6.07263 35.3743 5.72777C35.3097 5.55713 35.2207 5.38444 35.0965 5.24555C34.9725 5.10696 34.7719 4.95944 34.4999 4.95944C34.2279 4.95944 34.0273 5.10696 33.9034 5.24555C33.7791 5.38444 33.6901 5.55713 33.6255 5.72777C33.495 6.07263 33.4247 6.51538 33.4247 6.97971C33.4247 7.44404 33.495 7.8868 33.6255 8.23165C33.6901 8.4023 33.7791 8.57498 33.9034 8.71388C34.0273 8.85246 34.2279 8.99998 34.4999 8.99998Z" fill="#DDB90F" stroke="#BB9DE3"/>
<circle cx="34.5" cy="8.50003" r="2.83108" fill="#FFD50C" stroke="#BB9DE3"/>
</svg>
